<svg viewBox="0 0 1440 320" xmlns="http://www.w3.org/2000/svg">
  <path fill="#2b3e50" fill-opacity="1" d="M0,160L30,176C60,192,120,224,180,229.3C240,235,300,213,360,202.7C420,192,480,192,540,197.3C600,203,660,213,720,202.7C780,192,840,160,900,133.3C960,107,1020,85,1080,80C1140,75,1200,85,1260,101.3C1320,117,1380,139,1410,149.3L1440,160L1440,0L1410,0C1380,0,1320,0,1260,0C1200,0,1140,0,1080,0C1020,0,960,0,900,0C840,0,780,0,720,0C660,0,600,0,540,0C480,0,420,0,360,0C300,0,240,0,180,0C120,0,60,0,30,0L0,0Z"></path>
</svg>
