<svg viewBox="0 0 1440 320" xmlns="http://www.w3.org/2000/svg">
  <path fill="#cdeae1" fill-opacity="1" d="M0,128L30,144C60,160,120,192,180,186.7C240,181,300,139,360,128C420,117,480,139,540,149.3C600,160,660,160,720,149.3C780,139,840,117,900,112C960,107,1020,117,1080,138.7C1140,160,1200,192,1260,202.7C1320,213,1380,203,1410,197.3L1440,192L1440,320L1410,320C1380,320,1320,320,1260,320C1200,320,1140,320,1080,320C1020,320,960,320,900,320C840,320,780,320,720,320C660,320,600,320,540,320C480,320,420,320,360,320C300,320,240,320,180,320C120,320,60,320,30,320L0,320Z"></path>
</svg>
